<?xml version="1.0" encoding="UTF-8"?>
<svg version="1.1" viewBox="0 0 2000 2000" width="500" height="500" xmlns="http://www.w3.org/2000/svg">
<path transform="translate(981,541)" d="m0 0h42l27 2 30 4 26 5 27 7 46 17 20 9 27 14 28 17 14 10 19 14 15 13 16 15 17 17 7 8 9 10 15 20 14 19 9 15 12 22 12 23 10 25 10 30 7 25 6 31 4 34 1 19v37l-1 22-4 33-5 26-6 23-9 28-9 24-8 18-12 22-12 21-8 12-9 12-10 14-11 13-9 10-7 8-2 3h-2l-2 4h-2l-2 4h-2l-1 3-8 7-7 7-11 9-17 14-19 14-19 12-18 11-27 14-34 14-31 10-32 8-31 5-29 3-15 1h-44l-34-3-26-4-24-5-28-8-27-10-33-15-19-10-20-12-24-16-11-9-16-13-11-9-14-14-8-7-16-17-9-11-10-11-13-18-15-22-14-25-16-33-12-31-9-32-7-29-5-32-3-35v-36l2-25 5-32 10-40 11-33 9-21 14-29 9-17 10-16 13-19 13-18 12-14 11-12 7-8 10-10 8-7 7-7 8-7 14-12 16-12 14-10 21-13 27-15 21-10 28-11 22-8 28-7 31-6 32-4zm-4 28-31 3-29 5-26 6-24 8-35 14-25 12-17 10-19 12-13 9-11 9-16 13-10 9-8 7-22 22v2h-2l-18 22-11 15-13 19-8 13-13 24-8 16-8 18-12 36-8 30-4 20-3 21-1 15v56l2 22 4 26 10 40 12 35 11 26 13 24 9 16 11 16 13 18 11 14 9 10 15 16 16 16 8 7 14 12 10 8 17 12 15 10 20 12 24 12 27 12 33 11 25 6 28 5 33 4 15 1h32l28-3 33-5 25-5 24-7 21-7 30-13 16-8 17-9 14-9 16-11 17-12 14-12 11-9 13-12 13-13 7-8 10-11 10-13 15-20 15-25 12-21 10-22 9-24 7-21 7-27 4-22 3-21 1-13 1-43-1-31-4-33-6-30-8-28-12-34-12-26-13-24-11-18-12-17-13-16-9-11-9-10-25-25-14-11-12-10-15-11-17-11-25-15-17-9-28-12-33-12-30-8-33-6-32-3z" fill="#3EE0FC"/>
<path transform="translate(1e3 712)" d="m0 0 42 1 23 2 34 5 19 4 15 5 13 7 9 7 8 11 7 14 13 40 4 9 6-1 18-6h11l6 4 5 10-1 7-5 6-15 6-13 3 3 12 6 19 5 24 2 16v38l-3 15-4 10-7 9-9 6-4 2-1 34-2 9-6 9-4 3-4 1h-47l-8-3-6-7-2-8v-38l-206 1-1 37-4 11-4 5-8 2h-40l-9-2-7-6-3-5-1-4-1-40-9-6-8-8-5-10-3-11-1-8v-28l2-24 4-19 6-18 7-19h-7l-15-4-11-6-4-5v-9l6-9 6-4h7l13 4 11 5h2l5-12 9-24 9-22 7-12 9-10 14-8 14-5 25-5 37-5 12-1zm-24 25-35 3-30 5-16 5-11 5-8 6-6 8-6 14-21 63-4 13v2l55 1h281l1-2-12-36-13-36-8-18-4-6-5-5-8-5-16-7-24-5-26-3-31-2zm-145 148-3 3-3 14-1 14v40l3 10 7 8 2 1h339l6-3 6-7 3-11v-41l-2-19-3-8-1-1zm29 112-10 1v31l1 1h26v-33zm272 1 1 32 26 1 3-1v-32z" fill="#FEFEFE"/>
<path transform="translate(848,1093)" d="m0 0h47l6 2 5 6 1 2v37l50 1h140l1-35 4-9 4-3 3-1h48l6 2 4 7 1 4v54l-6 8-4 1h-304l-9-1-7-6-1-2v-54l3-6 5-5z" fill="#3EE0FC"/>
<path transform="translate(847,1212)" d="m0 0h314l7 8v52l-3 8-5 6-2 1-21 1h-14l-14-1-6-4-4-5-1-4-1-34h-189l-1 35-4 6-6 5-4 1h-41l-6-2-8-6-1-3v-55l8-8z" fill="#3EE0FC"/>
<path transform="translate(703,986)" d="m0 0h9l7 4 4 5 1 121 2 18 5 14 7 12 8 9 11 7 12 4 5 1 23 1 6 3 4 7v6l-4 6-6 5-7 2h-19l-19-5-16-8-10-8-7-7-9-11-8-15-6-18-3-18-1-13v-112l7-8z" fill="#3EE0FC"/>
<path transform="translate(1288,987)" d="m0 0h11l8 5 2 3 1 15v80l-1 33-2 14-6 18-8 15-7 9-9 10-13 10-16 8-16 4h-22l-8-4-4-5-1-8 4-8 3-3 4-1 26-1 10-4 12-8 7-7 7-11 5-11 3-12 1-8v-121l2-6z" fill="#3EE0FC"/>
<path transform="translate(1135,907)" d="m0 0 9 1 8 4 8 9 2 5v13l-5 9-8 7-6 2h-12l-8-4-7-7-4-10v-9l4-9 9-8z" fill="#FEFEFE"/>
<path transform="translate(871,908)" d="m0 0h14l8 4 7 8 2 5 1 10-3 9-6 8-8 5-8 1-10-2-8-6-5-7-2-7v-8l4-10 5-5 6-4z" fill="#FEFEFE"/>
</svg>
